<svg xmlns="http://www.w3.org/2000/svg" xmlns:xlink="http://www.w3.org/1999/xlink" width="1000" zoomAndPan="magnify" viewBox="0 0 750 757.92" height="1000" preserveAspectRatio="xMidYMid meet" version="1.0"><defs><clipPath id="b5dd143d26"><path d="M 78.300781 78.546875 L 469.136719 78.546875 L 469.136719 411.722656 L 78.300781 411.722656 Z M 78.300781 78.546875 " clip-rule="nonzero"/></clipPath><clipPath id="891cba768d"><path d="M 273.886719 78.546875 C 165.867188 78.546875 78.300781 153.03125 78.300781 244.914062 C 78.300781 336.796875 165.867188 411.28125 273.886719 411.28125 C 381.90625 411.28125 469.476562 336.796875 469.476562 244.914062 C 469.476562 153.03125 381.90625 78.546875 273.886719 78.546875 Z M 273.886719 78.546875 " clip-rule="nonzero"/></clipPath><clipPath id="403ac12681"><path d="M 236 142 L 515 142 L 515 305 L 236 305 Z M 236 142 " clip-rule="nonzero"/></clipPath><clipPath id="a211b29e46"><path d="M 307.167969 77.042969 L 530.894531 147.316406 L 459.472656 374.710938 L 235.742188 304.4375 Z M 307.167969 77.042969 " clip-rule="nonzero"/></clipPath><clipPath id="328c4872ba"><path d="M 307.167969 77.042969 L 530.894531 147.316406 L 459.472656 374.710938 L 235.742188 304.4375 Z M 307.167969 77.042969 " clip-rule="nonzero"/></clipPath><clipPath id="8507428f5c"><path d="M 263 290 L 474 290 L 474 339 L 263 339 Z M 263 290 " clip-rule="nonzero"/></clipPath><clipPath id="07c415c5b6"><path d="M 307.167969 77.042969 L 530.894531 147.316406 L 459.472656 374.710938 L 235.742188 304.4375 Z M 307.167969 77.042969 " clip-rule="nonzero"/></clipPath><clipPath id="abe2e299de"><path d="M 307.167969 77.042969 L 530.894531 147.316406 L 459.472656 374.710938 L 235.742188 304.4375 Z M 307.167969 77.042969 " clip-rule="nonzero"/></clipPath><clipPath id="6d7dfd4ca4"><path d="M 71 242.863281 L 476.667969 242.863281 L 476.667969 482.867188 L 71 482.867188 Z M 71 242.863281 " clip-rule="nonzero"/></clipPath><clipPath id="79fecede23"><path d="M 341.394531 477.101562 C 320.667969 480.582031 296.960938 482.867188 273.761719 482.867188 C 250.558594 482.867188 228.230469 480.90625 207.65625 477.425781 C 207.21875 477.316406 206.78125 477.316406 206.34375 477.210938 C 129.078125 463.285156 72.164062 426.515625 71.070312 383.675781 L 71.070312 242.863281 L 476.667969 242.863281 L 476.667969 383.570312 C 475.574219 426.734375 419.539062 463.503906 341.394531 477.101562 Z M 341.394531 477.101562 " clip-rule="nonzero"/></clipPath><clipPath id="1b7573d82a"><path d="M 0 0.863281 L 405.667969 0.863281 L 405.667969 240.867188 L 0 240.867188 Z M 0 0.863281 " clip-rule="nonzero"/></clipPath><clipPath id="88778297b1"><path d="M 270.394531 235.101562 C 249.667969 238.582031 225.960938 240.867188 202.761719 240.867188 C 179.558594 240.867188 157.230469 238.90625 136.65625 235.425781 C 136.21875 235.316406 135.78125 235.316406 135.34375 235.210938 C 58.078125 221.285156 1.164062 184.515625 0.0703125 141.675781 L 0.0703125 0.863281 L 405.667969 0.863281 L 405.667969 141.570312 C 404.574219 184.734375 348.539062 221.503906 270.394531 235.101562 Z M 270.394531 235.101562 " clip-rule="nonzero"/></clipPath><clipPath id="185a2d32c0"><rect x="0" width="406" y="0" height="241"/></clipPath><clipPath id="f615fd1510"><rect x="0" width="547" y="0" height="487"/></clipPath></defs><g transform="matrix(1, 0, 0, 1, 94, 95)"><g clip-path="url(#f615fd1510)"><g clip-path="url(#b5dd143d26)"><g clip-path="url(#891cba768d)"><path stroke-linecap="butt" transform="matrix(1.281441, 0, 0, 1.281441, 78.298176, 78.546416)" fill="none" stroke-linejoin="miter" d="M 152.631702 0.000358042 C 68.33635 0.000358042 0.00203274 58.125833 0.00203274 129.828551 C 0.00203274 201.531268 68.33635 259.656743 152.631702 259.656743 C 236.927053 259.656743 305.264419 201.531268 305.264419 129.828551 C 305.264419 58.125833 236.927053 0.000358042 152.631702 0.000358042 Z M 152.631702 0.000358042 " stroke="#1b6f3c" stroke-width="29.260838" stroke-opacity="1" stroke-miterlimit="4"/></g></g><g clip-path="url(#403ac12681)"><g clip-path="url(#a211b29e46)"><g clip-path="url(#328c4872ba)"><path fill="#c9a24a" d="M 420.527344 151.117188 C 399.535156 148.390625 369.09375 144.472656 337.546875 155.054688 C 308.570312 164.769531 290.621094 182.648438 286.128906 187.300781 C 259.113281 215.402344 253.15625 248.339844 251.5625 261.742188 C 251.566406 262.058594 251.917969 262.273438 252.101562 262.015625 C 257.972656 254.976562 266.425781 246.027344 277.910156 237.089844 C 301.128906 219.085938 323.078125 211.765625 335.875 207.628906 C 360.75 199.660156 383.359375 197.5625 400.832031 197.511719 C 401.242188 197.535156 401.285156 198.070312 400.9375 198.171875 C 376.152344 203.871094 356.054688 210.9375 341.554688 216.835938 C 314.523438 227.683594 293.261719 236.476562 272.113281 255.546875 C 248.546875 276.996094 234.707031 302.753906 237.078125 304.859375 C 238.808594 306.34375 247.410156 294.933594 264.011719 286.664062 C 284.714844 276.335938 303.445312 277.933594 317.105469 278.042969 C 364.894531 278.3125 404.429688 259.269531 413.535156 254.914062 C 456.230469 234.457031 481.527344 201.84375 492.746094 185.089844 C 503.597656 168.847656 510.242188 153.6875 514.398438 142.449219 C 514.488281 142.164062 514.167969 141.851562 513.886719 142.078125 C 502.324219 148.273438 485.230469 155.445312 463.960938 156.605469 C 447.414062 157.367188 442.117188 153.925781 420.527344 151.117188 Z M 420.527344 151.117188 " fill-opacity="1" fill-rule="nonzero"/></g></g></g><g clip-path="url(#8507428f5c)"><g clip-path="url(#07c415c5b6)"><g clip-path="url(#abe2e299de)"><path fill="#c9a24a" d="M 367.597656 301.324219 C 340.261719 292.84375 322.027344 287.324219 300.175781 291.332031 C 284.332031 294.195312 272.054688 301 263.765625 306.757812 C 262.828125 307.40625 263.453125 308.753906 264.550781 308.574219 C 300.375 302.683594 327.105469 307.105469 345.175781 312.46875 C 375.203125 321.378906 388.875 335.082031 418.980469 337.742188 C 440.84375 339.695312 459.648438 334.730469 473.28125 329.605469 C 474.347656 329.207031 474.003906 327.636719 472.867188 327.59375 C 459.148438 327.675781 440.042969 326.273438 418.328125 320.183594 C 397.410156 314.242188 394.078125 309.535156 367.597656 301.324219 Z M 367.597656 301.324219 " fill-opacity="1" fill-rule="nonzero"/></g></g></g><g clip-path="url(#6d7dfd4ca4)"><g clip-path="url(#79fecede23)"><g transform="matrix(1, 0, 0, 1, 71, 242)"><g clip-path="url(#185a2d32c0)"><g clip-path="url(#1b7573d82a)"><g clip-path="url(#88778297b1)"><path fill="#1b6f3c" d="M 405.667969 240.867188 L -0.273438 240.867188 L -0.273438 0.863281 L 405.667969 0.863281 Z M 405.667969 240.867188 " fill-opacity="1" fill-rule="nonzero"/></g></g></g></g></g></g><path stroke-linecap="round" transform="matrix(-1.269407, 0.17521, -0.17521, -1.269407, 387.968075, 411.670423)" fill="none" stroke-linejoin="miter" d="M 3.424164 6.244352 C 14.796223 1.237955 26.170941 1.250879 37.544465 6.288747 " stroke="#c9a24a" stroke-width="5" stroke-opacity="1" stroke-miterlimit="4"/><path stroke-linecap="round" transform="matrix(-1.281441, 0, 0, -1.281441, 298.509903, 420.675736)" fill="none" stroke-linejoin="miter" d="M 3.424901 6.245984 C 14.798205 1.237585 26.171508 1.252826 37.544811 6.288661 " stroke="#c9a24a" stroke-width="5" stroke-opacity="1" stroke-miterlimit="4"/><path stroke-linecap="round" transform="matrix(-1.268508, -0.181601, 0.181601, -1.268508, 207.939301, 418.636023)" fill="none" stroke-linejoin="miter" d="M 3.423507 6.243999 C 14.796547 1.237718 26.170651 1.250716 37.54323 6.286441 " stroke="#c9a24a" stroke-width="5" stroke-opacity="1" stroke-miterlimit="4"/><path stroke-linecap="round" transform="matrix(-1.281441, 0, 0, -1.281441, 359.106258, 350.30464)" fill="none" stroke-linejoin="miter" d="M 3.423885 6.245983 C 14.797189 1.237583 26.170492 1.252825 37.543795 6.288659 " stroke="#c9a24a" stroke-width="5" stroke-opacity="1" stroke-miterlimit="4"/><path stroke-linecap="round" transform="matrix(-1.281441, 0, 0, -1.281441, 260.644703, 350.30464)" fill="none" stroke-linejoin="miter" d="M 3.423403 6.245983 C 14.796707 1.237583 26.17001 1.252825 37.543313 6.288659 " stroke="#c9a24a" stroke-width="5" stroke-opacity="1" stroke-miterlimit="4"/><path stroke-linecap="round" transform="matrix(-1.270139, -0.169819, 0.169819, -1.270139, 161.124468, 348.263771)" fill="none" stroke-linejoin="miter" d="M 3.424101 6.245218 C 14.797959 1.236963 26.169802 1.251188 37.542653 6.28749 " stroke="#c9a24a" stroke-width="5" stroke-opacity="1" stroke-miterlimit="4"/><path stroke-linecap="round" transform="matrix(1.281441, 0, 0, 1.281441, 70.295261, 272.108052)" fill="none" stroke-linejoin="miter" d="M 3.000812 2.957908 C 94.005528 20.263253 197.895517 20.223625 314.673827 2.842072 " stroke="#c9a24a" stroke-width="5" stroke-opacity="1" stroke-miterlimit="4"/><path stroke-linecap="round" transform="matrix(-1.265844, 0.199326, -0.199326, -1.265844, 446.089904, 340.78952)" fill="none" stroke-linejoin="miter" d="M 3.423293 6.245212 C 14.796363 1.23786 26.171856 1.251627 37.543278 6.288574 " stroke="#c9a24a" stroke-width="5" stroke-opacity="1" stroke-miterlimit="4"/></g></g></svg>