<svg xmlns="http://www.w3.org/2000/svg" xmlns:xlink="http://www.w3.org/1999/xlink" width="1000" zoomAndPan="magnify" viewBox="0 0 750 757.92" height="1000" preserveAspectRatio="xMidYMid meet" version="1.0"><defs><g/><clipPath id="30a27d1961"><rect x="0" width="428" y="0" height="187"/></clipPath><clipPath id="7be5fbfbe7"><path d="M 214.558594 125.660156 L 541.527344 125.660156 L 541.527344 403.878906 L 214.558594 403.878906 Z M 214.558594 125.660156 " clip-rule="nonzero"/></clipPath><clipPath id="d54796346c"><path d="M 378.011719 125.660156 C 287.742188 125.660156 214.558594 187.90625 214.558594 264.691406 C 214.558594 341.480469 287.742188 403.726562 378.011719 403.726562 C 468.285156 403.726562 541.464844 341.480469 541.464844 264.691406 C 541.464844 187.90625 468.285156 125.660156 378.011719 125.660156 Z M 378.011719 125.660156 " clip-rule="nonzero"/></clipPath><clipPath id="7b7115c58b"><path d="M 347 180 L 580 180 L 580 317 L 347 317 Z M 347 180 " clip-rule="nonzero"/></clipPath><clipPath id="ce30aa8535"><path d="M 405.824219 126.195312 L 592.5625 184.847656 L 532.785156 375.160156 L 346.050781 316.507812 Z M 405.824219 126.195312 " clip-rule="nonzero"/></clipPath><clipPath id="43b1e047ad"><path d="M 405.824219 126.195312 L 592.5625 184.847656 L 532.785156 375.160156 L 346.050781 316.507812 Z M 405.824219 126.195312 " clip-rule="nonzero"/></clipPath><clipPath id="4167a6bcb9"><path d="M 369 304 L 546 304 L 546 345 L 369 345 Z M 369 304 " clip-rule="nonzero"/></clipPath><clipPath id="a3c55cbf70"><path d="M 405.824219 126.195312 L 592.5625 184.847656 L 532.785156 375.160156 L 346.050781 316.507812 Z M 405.824219 126.195312 " clip-rule="nonzero"/></clipPath><clipPath id="974f053646"><path d="M 405.824219 126.195312 L 592.5625 184.847656 L 532.785156 375.160156 L 346.050781 316.507812 Z M 405.824219 126.195312 " clip-rule="nonzero"/></clipPath><clipPath id="0fb9ec17dc"><path d="M 208.242188 264.78125 L 547.488281 264.78125 L 547.488281 465.351562 L 208.242188 465.351562 Z M 208.242188 264.78125 " clip-rule="nonzero"/></clipPath><clipPath id="7477a1720a"><path d="M 434.441406 460.535156 C 417.121094 463.445312 397.308594 465.351562 377.917969 465.351562 C 358.527344 465.351562 339.871094 463.714844 322.675781 460.808594 C 322.308594 460.714844 321.945312 460.714844 321.578125 460.625 C 257.007812 448.988281 209.445312 418.261719 208.53125 382.457031 L 208.53125 264.78125 L 547.488281 264.78125 L 547.488281 382.371094 C 546.574219 418.441406 499.746094 449.171875 434.441406 460.535156 Z M 434.441406 460.535156 " clip-rule="nonzero"/></clipPath><clipPath id="93f6080e17"><path d="M 0.335938 0.78125 L 339.488281 0.78125 L 339.488281 201.351562 L 0.335938 201.351562 Z M 0.335938 0.78125 " clip-rule="nonzero"/></clipPath><clipPath id="a65e185dbd"><path d="M 226.441406 196.535156 C 209.121094 199.445312 189.308594 201.351562 169.917969 201.351562 C 150.527344 201.351562 131.871094 199.714844 114.675781 196.808594 C 114.308594 196.714844 113.945312 196.714844 113.578125 196.625 C 49.007812 184.988281 1.445312 154.261719 0.53125 118.457031 L 0.53125 0.78125 L 339.488281 0.78125 L 339.488281 118.371094 C 338.574219 154.441406 291.746094 185.171875 226.441406 196.535156 Z M 226.441406 196.535156 " clip-rule="nonzero"/></clipPath><clipPath id="394f2df559"><rect x="0" width="340" y="0" height="202"/></clipPath></defs><g transform="matrix(1, 0, 0, 1, 157, 451)"><g clip-path="url(#30a27d1961)"><g fill="#1b6f3c" fill-opacity="1"><g transform="translate(1.476966, 139.916973)"><g><path d="M 52.234375 0.921875 C 43.484375 0.921875 35.460938 -1.109375 28.171875 -5.171875 C 20.878906 -9.234375 15.085938 -14.910156 10.796875 -22.203125 C 6.515625 -29.492188 4.375 -37.691406 4.375 -46.796875 C 4.375 -55.898438 6.515625 -64.078125 10.796875 -71.328125 C 15.085938 -78.578125 20.878906 -84.234375 28.171875 -88.296875 C 35.460938 -92.359375 43.484375 -94.390625 52.234375 -94.390625 C 60.984375 -94.390625 69.003906 -92.359375 76.296875 -88.296875 C 83.585938 -84.234375 89.332031 -78.578125 93.53125 -71.328125 C 97.726562 -64.078125 99.828125 -55.898438 99.828125 -46.796875 C 99.828125 -37.691406 97.707031 -29.492188 93.46875 -22.203125 C 89.226562 -14.910156 83.484375 -9.234375 76.234375 -5.171875 C 68.984375 -1.109375 60.984375 0.921875 52.234375 0.921875 Z M 52.234375 -19.75 C 59.660156 -19.75 65.601562 -22.222656 70.0625 -27.171875 C 74.53125 -32.128906 76.765625 -38.671875 76.765625 -46.796875 C 76.765625 -55.015625 74.53125 -61.578125 70.0625 -66.484375 C 65.601562 -71.390625 59.660156 -73.84375 52.234375 -73.84375 C 44.722656 -73.84375 38.734375 -71.410156 34.265625 -66.546875 C 29.804688 -61.691406 27.578125 -55.109375 27.578125 -46.796875 C 27.578125 -38.578125 29.804688 -32.015625 34.265625 -27.109375 C 38.734375 -22.203125 44.722656 -19.75 52.234375 -19.75 Z M 52.234375 -19.75 "/></g></g></g><g fill="#1b6f3c" fill-opacity="1"><g transform="translate(97.196915, 139.916973)"><g><path d="M 19.484375 -81.671875 C 15.503906 -81.671875 12.253906 -82.835938 9.734375 -85.171875 C 7.222656 -87.515625 5.96875 -90.410156 5.96875 -93.859375 C 5.96875 -97.398438 7.222656 -100.335938 9.734375 -102.671875 C 12.253906 -105.015625 15.503906 -106.1875 19.484375 -106.1875 C 23.378906 -106.1875 26.582031 -105.015625 29.09375 -102.671875 C 31.613281 -100.335938 32.875 -97.398438 32.875 -93.859375 C 32.875 -90.410156 31.613281 -87.515625 29.09375 -85.171875 C 26.582031 -82.835938 23.378906 -81.671875 19.484375 -81.671875 Z M 30.890625 9.546875 C 30.890625 18.648438 28.59375 25.210938 24 29.234375 C 19.40625 33.253906 12.992188 35.265625 4.765625 35.265625 L -4.109375 35.265625 L -4.109375 16.046875 L 1.328125 16.046875 C 3.796875 16.046875 5.5625 15.554688 6.625 14.578125 C 7.6875 13.609375 8.21875 12.019531 8.21875 9.8125 L 8.21875 -73.984375 L 30.890625 -73.984375 Z M 30.890625 9.546875 "/></g></g></g><g fill="#1b6f3c" fill-opacity="1"><g transform="translate(127.688827, 139.916973)"><g><path d="M 3.71875 -37.125 C 3.71875 -44.726562 5.148438 -51.398438 8.015625 -57.140625 C 10.890625 -62.890625 14.800781 -67.3125 19.75 -70.40625 C 24.695312 -73.5 30.222656 -75.046875 36.328125 -75.046875 C 41.546875 -75.046875 46.117188 -73.984375 50.046875 -71.859375 C 53.984375 -69.734375 57.007812 -66.945312 59.125 -63.5 L 59.125 -73.984375 L 81.796875 -73.984375 L 81.796875 0 L 59.125 0 L 59.125 -10.46875 C 56.914062 -7.019531 53.84375 -4.234375 49.90625 -2.109375 C 45.976562 0.00390625 41.40625 1.0625 36.1875 1.0625 C 30.175781 1.0625 24.695312 -0.503906 19.75 -3.640625 C 14.800781 -6.785156 10.890625 -11.25 8.015625 -17.03125 C 5.148438 -22.820312 3.71875 -29.519531 3.71875 -37.125 Z M 59.125 -36.984375 C 59.125 -42.640625 57.554688 -47.101562 54.421875 -50.375 C 51.285156 -53.644531 47.460938 -55.28125 42.953125 -55.28125 C 38.441406 -55.28125 34.617188 -53.664062 31.484375 -50.4375 C 28.347656 -47.21875 26.78125 -42.78125 26.78125 -37.125 C 26.78125 -31.46875 28.347656 -26.976562 31.484375 -23.65625 C 34.617188 -20.34375 38.441406 -18.6875 42.953125 -18.6875 C 47.460938 -18.6875 51.285156 -20.320312 54.421875 -23.59375 C 57.554688 -26.863281 59.125 -31.328125 59.125 -36.984375 Z M 59.125 -36.984375 "/></g></g></g><g fill="#c9a24a" fill-opacity="1"><g transform="translate(209.228233, 139.916973)"><g><path d="M 59.265625 -47.328125 C 64.210938 -46.441406 68.410156 -43.832031 71.859375 -39.5 C 75.304688 -35.175781 77.03125 -30.273438 77.03125 -24.796875 C 77.03125 -20.109375 75.8125 -15.882812 73.375 -12.125 C 70.945312 -8.375 67.4375 -5.414062 62.84375 -3.25 C 58.25 -1.082031 52.898438 0 46.796875 0 L 9.9375 0 L 9.9375 -92.140625 L 45.078125 -92.140625 C 51.347656 -92.140625 56.738281 -91.078125 61.25 -88.953125 C 65.757812 -86.835938 69.160156 -83.988281 71.453125 -80.40625 C 73.753906 -76.832031 74.90625 -72.832031 74.90625 -68.40625 C 74.90625 -63.101562 73.488281 -58.679688 70.65625 -55.140625 C 67.832031 -51.609375 64.035156 -49.003906 59.265625 -47.328125 Z M 25.0625 -53.421875 L 43.75 -53.421875 C 48.695312 -53.421875 52.5625 -54.546875 55.34375 -56.796875 C 58.132812 -59.054688 59.53125 -62.304688 59.53125 -66.546875 C 59.53125 -70.703125 58.132812 -73.953125 55.34375 -76.296875 C 52.5625 -78.640625 48.695312 -79.8125 43.75 -79.8125 L 25.0625 -79.8125 Z M 45.46875 -12.328125 C 50.59375 -12.328125 54.613281 -13.5625 57.53125 -16.03125 C 60.445312 -18.507812 61.90625 -21.960938 61.90625 -26.390625 C 61.90625 -30.890625 60.359375 -34.460938 57.265625 -37.109375 C 54.179688 -39.765625 50.070312 -41.09375 44.9375 -41.09375 L 25.0625 -41.09375 L 25.0625 -12.328125 Z M 45.46875 -12.328125 "/></g></g></g><g fill="#c9a24a" fill-opacity="1"><g transform="translate(284.266117, 139.916973)"><g><path d="M 41.625 1.1875 C 34.726562 1.1875 28.492188 -0.378906 22.921875 -3.515625 C 17.359375 -6.648438 12.984375 -11.066406 9.796875 -16.765625 C 6.617188 -22.472656 5.03125 -29.082031 5.03125 -36.59375 C 5.03125 -44.019531 6.664062 -50.601562 9.9375 -56.34375 C 13.207031 -62.09375 17.671875 -66.515625 23.328125 -69.609375 C 28.984375 -72.703125 35.304688 -74.25 42.296875 -74.25 C 49.273438 -74.25 55.59375 -72.703125 61.25 -69.609375 C 66.90625 -66.515625 71.367188 -62.09375 74.640625 -56.34375 C 77.910156 -50.601562 79.546875 -44.019531 79.546875 -36.59375 C 79.546875 -29.164062 77.863281 -22.578125 74.5 -16.828125 C 71.144531 -11.085938 66.570312 -6.648438 60.78125 -3.515625 C 55 -0.378906 48.613281 1.1875 41.625 1.1875 Z M 41.625 -11.9375 C 45.519531 -11.9375 49.164062 -12.863281 52.5625 -14.71875 C 55.96875 -16.570312 58.726562 -19.351562 60.84375 -23.0625 C 62.96875 -26.78125 64.03125 -31.289062 64.03125 -36.59375 C 64.03125 -41.894531 63.015625 -46.378906 60.984375 -50.046875 C 58.953125 -53.710938 56.253906 -56.472656 52.890625 -58.328125 C 49.535156 -60.191406 45.914062 -61.125 42.03125 -61.125 C 38.132812 -61.125 34.53125 -60.191406 31.21875 -58.328125 C 27.90625 -56.472656 25.273438 -53.710938 23.328125 -50.046875 C 21.390625 -46.378906 20.421875 -41.894531 20.421875 -36.59375 C 20.421875 -28.726562 22.429688 -22.648438 26.453125 -18.359375 C 30.472656 -14.078125 35.53125 -11.9375 41.625 -11.9375 Z M 41.625 -11.9375 "/></g></g></g><g fill="#c9a24a" fill-opacity="1"><g transform="translate(360.364619, 139.916973)"><g><path d="M 41.234375 -36.984375 L 64.828125 0 L 47.734375 0 L 31.953125 -24.796875 L 17.109375 0 L 1.328125 0 L 24.921875 -35.921875 L 1.328125 -73.046875 L 18.421875 -73.046875 L 34.203125 -48.265625 L 49.046875 -73.046875 L 64.828125 -73.046875 Z M 41.234375 -36.984375 "/></g></g></g></g></g><g clip-path="url(#7be5fbfbe7)"><g clip-path="url(#d54796346c)"><path stroke-linecap="butt" transform="matrix(0.749921, 0, 0, 0.749921, 214.560212, 125.658758)" fill="none" stroke-linejoin="miter" d="M 217.958369 0.00186503 C 97.586277 0.00186503 -0.00215817 83.005426 -0.00215817 185.396451 C -0.00215817 287.792686 97.586277 370.796247 217.958369 370.796247 C 338.335669 370.796247 435.918895 287.792686 435.918895 185.396451 C 435.918895 83.005426 338.335669 0.00186503 217.958369 0.00186503 Z M 217.958369 0.00186503 " stroke="#1b6f3c" stroke-width="44" stroke-opacity="1" stroke-miterlimit="4"/></g></g><g clip-path="url(#7b7115c58b)"><g clip-path="url(#ce30aa8535)"><g clip-path="url(#43b1e047ad)"><path fill="#c9a24a" d="M 500.5625 188.097656 C 483.023438 185.820312 457.582031 182.546875 431.21875 191.390625 C 407.003906 199.507812 392.003906 214.449219 388.25 218.339844 C 365.675781 241.820312 360.695312 269.347656 359.363281 280.546875 C 359.367188 280.8125 359.660156 280.992188 359.816406 280.777344 C 364.722656 274.890625 371.785156 267.414062 381.382812 259.945312 C 400.785156 244.902344 419.128906 238.78125 429.824219 235.328125 C 450.609375 228.664062 469.503906 226.914062 484.105469 226.871094 C 484.449219 226.890625 484.484375 227.335938 484.195312 227.421875 C 463.480469 232.183594 446.6875 238.089844 434.570312 243.019531 C 411.980469 252.085938 394.210938 259.433594 376.539062 275.371094 C 356.84375 293.296875 345.277344 314.820312 347.261719 316.578125 C 348.703125 317.820312 355.894531 308.285156 369.769531 301.375 C 387.066406 292.742188 402.722656 294.078125 414.136719 294.167969 C 454.074219 294.398438 487.113281 278.480469 494.722656 274.84375 C 530.402344 257.746094 551.542969 230.492188 560.917969 216.492188 C 569.988281 202.917969 575.539062 190.246094 579.011719 180.855469 C 579.089844 180.617188 578.820312 180.355469 578.585938 180.546875 C 568.925781 185.722656 554.636719 191.71875 536.859375 192.6875 C 523.035156 193.320312 518.609375 190.445312 500.5625 188.097656 Z M 500.5625 188.097656 " fill-opacity="1" fill-rule="nonzero"/></g></g></g><g clip-path="url(#4167a6bcb9)"><g clip-path="url(#a3c55cbf70)"><g clip-path="url(#974f053646)"><path fill="#c9a24a" d="M 456.332031 313.625 C 433.488281 306.539062 418.253906 301.925781 399.992188 305.277344 C 386.746094 307.667969 376.488281 313.355469 369.558594 318.167969 C 368.777344 318.707031 369.300781 319.832031 370.21875 319.683594 C 400.15625 314.761719 422.492188 318.457031 437.597656 322.941406 C 462.6875 330.382812 474.117188 341.835938 499.273438 344.058594 C 517.542969 345.691406 533.261719 341.542969 544.652344 337.257812 C 545.542969 336.929688 545.253906 335.613281 544.304688 335.578125 C 532.839844 335.648438 516.875 334.476562 498.730469 329.386719 C 481.246094 324.421875 478.460938 320.488281 456.332031 313.625 Z M 456.332031 313.625 " fill-opacity="1" fill-rule="nonzero"/></g></g></g><g clip-path="url(#0fb9ec17dc)"><g clip-path="url(#7477a1720a)"><g transform="matrix(1, 0, 0, 1, 208, 264)"><g clip-path="url(#394f2df559)"><g clip-path="url(#93f6080e17)"><g clip-path="url(#a65e185dbd)"><path fill="#1b6f3c" d="M 339.488281 201.351562 L 0.242188 201.351562 L 0.242188 0.78125 L 339.488281 0.78125 Z M 339.488281 201.351562 " fill-opacity="1" fill-rule="nonzero"/></g></g></g></g></g></g><path stroke-linecap="round" transform="matrix(-0.742878, 0.102536, -0.102536, -0.742878, 473.330153, 405.791147)" fill="none" stroke-linejoin="miter" d="M 4.736959 8.901589 C 21.044746 1.687598 37.354354 1.698717 53.66436 8.945265 " stroke="#c9a24a" stroke-width="7" stroke-opacity="1" stroke-miterlimit="4"/><path stroke-linecap="round" transform="matrix(-0.749921, 0, 0, -0.749921, 398.576996, 413.313777)" fill="none" stroke-linejoin="miter" d="M 4.738578 8.903684 C 21.047591 1.684172 37.351396 1.699798 53.66041 8.945355 " stroke="#c9a24a" stroke-width="7" stroke-opacity="1" stroke-miterlimit="4"/><path stroke-linecap="round" transform="matrix(-0.742352, -0.106276, 0.106276, -0.742352, 322.894841, 411.607005)" fill="none" stroke-linejoin="miter" d="M 4.737042 8.900733 C 21.047214 1.68263 37.356592 1.699877 53.663699 8.942162 " stroke="#c9a24a" stroke-width="7" stroke-opacity="1" stroke-miterlimit="4"/><path stroke-linecap="round" transform="matrix(-0.749921, 0, 0, -0.749921, 449.217595, 354.504343)" fill="none" stroke-linejoin="miter" d="M 4.738544 8.902564 C 21.047558 1.683052 37.351363 1.698679 53.660376 8.944236 " stroke="#c9a24a" stroke-width="7" stroke-opacity="1" stroke-miterlimit="4"/><path stroke-linecap="round" transform="matrix(-0.749921, 0, 0, -0.749921, 366.932886, 354.504343)" fill="none" stroke-linejoin="miter" d="M 4.73914 8.902564 C 21.048153 1.683052 37.351958 1.698679 53.660972 8.944236 " stroke="#c9a24a" stroke-width="7" stroke-opacity="1" stroke-miterlimit="4"/><path stroke-linecap="round" transform="matrix(-0.743307, -0.0993807, 0.0993807, -0.743307, 283.770946, 352.796722)" fill="none" stroke-linejoin="miter" d="M 4.739014 8.899178 C 21.043143 1.684789 37.352291 1.700931 53.660606 8.94313 " stroke="#c9a24a" stroke-width="7" stroke-opacity="1" stroke-miterlimit="4"/><path stroke-linecap="round" transform="matrix(0.749921, 0, 0, 0.749921, 207.882166, 289.265041)" fill="none" stroke-linejoin="miter" d="M 4.152342 4.131423 C 134.176487 28.873619 282.629661 28.816321 449.506655 3.964739 " stroke="#c9a24a" stroke-width="7" stroke-opacity="1" stroke-miterlimit="4"/><path stroke-linecap="round" transform="matrix(-0.740793, 0.116649, -0.116649, -0.740793, 521.901744, 346.556179)" fill="none" stroke-linejoin="miter" d="M 4.735626 8.899865 C 21.047302 1.686839 37.355242 1.697325 53.662968 8.942422 " stroke="#c9a24a" stroke-width="7" stroke-opacity="1" stroke-miterlimit="4"/></svg>