<svg xmlns="http://www.w3.org/2000/svg" xmlns:xlink="http://www.w3.org/1999/xlink" width="1000" zoomAndPan="magnify" viewBox="0 0 750 749.999995" height="1000" preserveAspectRatio="xMidYMid meet" version="1.0"><defs><g/><clipPath id="5c2f2b32ce"><path d="M 41.5 42.304688 L 200.472656 42.304688 L 200.472656 177.125 L 41.5 177.125 Z M 41.5 42.304688 " clip-rule="nonzero"/></clipPath><clipPath id="82fb18c390"><path d="M 120.828125 42.304688 C 77.015625 42.304688 41.5 72.515625 41.5 109.78125 C 41.5 147.050781 77.015625 177.257812 120.828125 177.257812 C 164.636719 177.257812 200.15625 147.050781 200.15625 109.78125 C 200.15625 72.515625 164.636719 42.304688 120.828125 42.304688 Z M 120.828125 42.304688 " clip-rule="nonzero"/></clipPath><clipPath id="822c87f831"><path d="M 105 68 L 219 68 L 219 135 L 105 135 Z M 105 68 " clip-rule="nonzero"/></clipPath><clipPath id="bab80f982b"><path d="M 134.324219 41.695312 L 225.03125 70.1875 L 196.074219 162.378906 L 105.367188 133.890625 Z M 134.324219 41.695312 " clip-rule="nonzero"/></clipPath><clipPath id="57ef03f0f2"><path d="M 134.324219 41.695312 L 225.03125 70.1875 L 196.074219 162.378906 L 105.367188 133.890625 Z M 134.324219 41.695312 " clip-rule="nonzero"/></clipPath><clipPath id="7340a9bc6d"><path d="M 116 128 L 202 128 L 202 148 L 116 148 Z M 116 128 " clip-rule="nonzero"/></clipPath><clipPath id="ae8da590f6"><path d="M 134.324219 41.695312 L 225.03125 70.1875 L 196.074219 162.378906 L 105.367188 133.890625 Z M 134.324219 41.695312 " clip-rule="nonzero"/></clipPath><clipPath id="100cac467c"><path d="M 134.324219 41.695312 L 225.03125 70.1875 L 196.074219 162.378906 L 105.367188 133.890625 Z M 134.324219 41.695312 " clip-rule="nonzero"/></clipPath><clipPath id="ca109d7bb1"><path d="M 38.429688 108.953125 L 203.078125 108.953125 L 203.078125 206.296875 L 38.429688 206.296875 Z M 38.429688 108.953125 " clip-rule="nonzero"/></clipPath><clipPath id="75301814b6"><path d="M 148.210938 203.960938 C 139.804688 205.371094 130.191406 206.296875 120.78125 206.296875 C 111.367188 206.296875 102.3125 205.503906 93.96875 204.09375 C 93.789062 204.046875 93.613281 204.046875 93.433594 204.003906 C 62.09375 198.355469 39.011719 183.441406 38.570312 166.066406 L 38.570312 108.953125 L 203.078125 108.953125 L 203.078125 166.023438 C 202.636719 183.53125 179.90625 198.445312 148.210938 203.960938 Z M 148.210938 203.960938 " clip-rule="nonzero"/></clipPath><clipPath id="58cd263d12"><path d="M 0.480469 0.953125 L 165.078125 0.953125 L 165.078125 98.296875 L 0.480469 98.296875 Z M 0.480469 0.953125 " clip-rule="nonzero"/></clipPath><clipPath id="2a3909a911"><path d="M 110.210938 95.960938 C 101.804688 97.371094 92.191406 98.296875 82.78125 98.296875 C 73.367188 98.296875 64.3125 97.503906 55.96875 96.09375 C 55.789062 96.046875 55.613281 96.046875 55.433594 96.003906 C 24.09375 90.355469 1.011719 75.441406 0.570312 58.066406 L 0.570312 0.953125 L 165.078125 0.953125 L 165.078125 58.023438 C 164.636719 75.53125 141.90625 90.445312 110.210938 95.960938 Z M 110.210938 95.960938 " clip-rule="nonzero"/></clipPath><clipPath id="4469be909b"><rect x="0" width="166" y="0" height="99"/></clipPath><clipPath id="e61a50479c"><rect x="0" width="560" y="0" height="218"/></clipPath></defs><g transform="matrix(1, 0, 0, 1, 76, 251)"><g clip-path="url(#e61a50479c)"><g clip-path="url(#5c2f2b32ce)"><g clip-path="url(#82fb18c390)"><path stroke-linecap="butt" transform="matrix(0.779301, 0, 0, 0.779301, 41.496732, 42.306197)" fill="none" stroke-linejoin="miter" d="M 101.798161 -0.00193687 C 45.577896 -0.00193687 0.00419334 38.764783 0.00419334 86.584089 C 0.00419334 134.408406 45.577896 173.170114 101.798161 173.170114 C 158.013414 173.170114 203.592129 134.408406 203.592129 86.584089 C 203.592129 38.764783 158.013414 -0.00193687 101.798161 -0.00193687 Z M 101.798161 -0.00193687 " stroke="#1b6f3c" stroke-width="25.022429" stroke-opacity="1" stroke-miterlimit="4"/></g></g><g clip-path="url(#822c87f831)"><g clip-path="url(#bab80f982b)"><g clip-path="url(#57ef03f0f2)"><path fill="#c9a24a" d="M 180.300781 71.738281 C 171.789062 70.632812 159.441406 69.046875 146.648438 73.335938 C 134.894531 77.277344 127.617188 84.527344 125.792969 86.414062 C 114.839844 97.8125 112.421875 111.167969 111.777344 116.605469 C 111.777344 116.734375 111.921875 116.820312 111.996094 116.714844 C 114.375 113.859375 117.804688 110.230469 122.460938 106.605469 C 131.878906 99.304688 140.78125 96.335938 145.96875 94.660156 C 156.058594 91.425781 165.226562 90.574219 172.3125 90.554688 C 172.480469 90.566406 172.496094 90.78125 172.355469 90.824219 C 162.304688 93.132812 154.15625 96 148.273438 98.394531 C 137.3125 102.792969 128.6875 106.359375 120.109375 114.09375 C 110.554688 122.792969 104.941406 133.238281 105.902344 134.089844 C 106.601562 134.695312 110.089844 130.066406 116.824219 126.710938 C 125.222656 122.523438 132.816406 123.171875 138.359375 123.214844 C 157.738281 123.324219 173.773438 115.601562 177.464844 113.835938 C 194.78125 105.539062 205.042969 92.3125 209.59375 85.519531 C 213.992188 78.929688 216.6875 72.78125 218.375 68.222656 C 218.410156 68.109375 218.28125 67.980469 218.167969 68.074219 C 213.476562 70.585938 206.542969 73.496094 197.917969 73.964844 C 191.207031 74.273438 189.058594 72.878906 180.300781 71.738281 Z M 180.300781 71.738281 " fill-opacity="1" fill-rule="nonzero"/></g></g></g><g clip-path="url(#7340a9bc6d)"><g clip-path="url(#ae8da590f6)"><g clip-path="url(#100cac467c)"><path fill="#c9a24a" d="M 158.835938 132.65625 C 147.75 129.21875 140.355469 126.980469 131.492188 128.605469 C 125.066406 129.765625 120.085938 132.527344 116.722656 134.863281 C 116.34375 135.125 116.597656 135.671875 117.042969 135.597656 C 131.574219 133.210938 142.414062 135.003906 149.742188 137.179688 C 161.917969 140.792969 167.464844 146.347656 179.675781 147.429688 C 188.542969 148.21875 196.167969 146.207031 201.695312 144.128906 C 202.128906 143.964844 201.992188 143.328125 201.53125 143.3125 C 195.964844 143.34375 188.214844 142.777344 179.410156 140.308594 C 170.925781 137.898438 169.574219 135.988281 158.835938 132.65625 Z M 158.835938 132.65625 " fill-opacity="1" fill-rule="nonzero"/></g></g></g><g clip-path="url(#ca109d7bb1)"><g clip-path="url(#75301814b6)"><g transform="matrix(1, 0, 0, 1, 38, 108)"><g clip-path="url(#4469be909b)"><g clip-path="url(#58cd263d12)"><g clip-path="url(#2a3909a911)"><path fill="#1b6f3c" d="M 165.078125 98.296875 L 0.429688 98.296875 L 0.429688 0.953125 L 165.078125 0.953125 Z M 165.078125 98.296875 " fill-opacity="1" fill-rule="nonzero"/></g></g></g></g></g></g><path stroke-linecap="round" transform="matrix(-0.771982, 0.106553, -0.106553, -0.771982, 167.029976, 177.301621)" fill="none" stroke-linejoin="miter" d="M 2.112133 4.042096 C 9.772494 0.636476 17.431339 0.651226 25.09432 4.082065 " stroke="#c9a24a" stroke-width="3" stroke-opacity="1" stroke-miterlimit="4"/><path stroke-linecap="round" transform="matrix(-0.779301, 0, 0, -0.779301, 130.762805, 180.945418)" fill="none" stroke-linejoin="miter" d="M 2.111659 4.040215 C 9.770768 0.636724 17.43489 0.651761 25.093998 4.085328 " stroke="#c9a24a" stroke-width="3" stroke-opacity="1" stroke-miterlimit="4"/><path stroke-linecap="round" transform="matrix(-0.771436, -0.110439, 0.110439, -0.771436, 94.046162, 180.111601)" fill="none" stroke-linejoin="miter" d="M 2.111732 4.040082 C 9.772245 0.639455 17.43023 0.652063 25.091358 4.082158 " stroke="#c9a24a" stroke-width="3" stroke-opacity="1" stroke-miterlimit="4"/><path stroke-linecap="round" transform="matrix(-0.779301, 0, 0, -0.779301, 155.340787, 152.402793)" fill="none" stroke-linejoin="miter" d="M 2.111475 4.040656 C 9.770584 0.637165 17.434705 0.652202 25.093814 4.080756 " stroke="#c9a24a" stroke-width="3" stroke-opacity="1" stroke-miterlimit="4"/><path stroke-linecap="round" transform="matrix(-0.779301, 0, 0, -0.779301, 115.404623, 152.402793)" fill="none" stroke-linejoin="miter" d="M 2.11319 4.040656 C 9.772298 0.637165 17.431407 0.652202 25.090516 4.080756 " stroke="#c9a24a" stroke-width="3" stroke-opacity="1" stroke-miterlimit="4"/><path stroke-linecap="round" transform="matrix(-0.772428, -0.103274, 0.103274, -0.772428, 75.05672, 151.568829)" fill="none" stroke-linejoin="miter" d="M 2.11542 4.039074 C 9.772362 0.638494 17.430536 0.651297 25.090607 4.082453 " stroke="#c9a24a" stroke-width="3" stroke-opacity="1" stroke-miterlimit="4"/><path stroke-linecap="round" transform="matrix(0.779301, 0, 0, 0.779301, 38.275593, 120.944075)" fill="none" stroke-linejoin="miter" d="M 1.766649 1.76599 C 62.55832 13.354904 131.976513 13.334854 210.026241 1.700828 " stroke="#c9a24a" stroke-width="3" stroke-opacity="1" stroke-miterlimit="4"/><path stroke-linecap="round" transform="matrix(-0.769815, 0.121219, -0.121219, -0.769815, 190.60199, 148.553594)" fill="none" stroke-linejoin="miter" d="M 2.114522 4.040832 C 9.774375 0.639551 17.434359 0.653274 25.094473 4.082 " stroke="#c9a24a" stroke-width="3" stroke-opacity="1" stroke-miterlimit="4"/><g fill="#1b6f3c" fill-opacity="1"><g transform="translate(224.602471, 160.253481)"><g><path d="M 41.0625 0.734375 C 34.175781 0.734375 27.867188 -0.863281 22.140625 -4.0625 C 16.410156 -7.257812 11.859375 -11.722656 8.484375 -17.453125 C 5.117188 -23.179688 3.4375 -29.625 3.4375 -36.78125 C 3.4375 -43.9375 5.117188 -50.363281 8.484375 -56.0625 C 11.859375 -61.757812 16.410156 -66.203125 22.140625 -69.390625 C 27.867188 -72.585938 34.175781 -74.1875 41.0625 -74.1875 C 47.9375 -74.1875 54.238281 -72.585938 59.96875 -69.390625 C 65.695312 -66.203125 70.210938 -61.757812 73.515625 -56.0625 C 76.816406 -50.363281 78.46875 -43.9375 78.46875 -36.78125 C 78.46875 -29.625 76.800781 -23.179688 73.46875 -17.453125 C 70.132812 -11.722656 65.617188 -7.257812 59.921875 -4.0625 C 54.222656 -0.863281 47.9375 0.734375 41.0625 0.734375 Z M 41.0625 -15.53125 C 46.894531 -15.53125 51.5625 -17.472656 55.0625 -21.359375 C 58.570312 -25.253906 60.328125 -30.394531 60.328125 -36.78125 C 60.328125 -43.238281 58.570312 -48.394531 55.0625 -52.25 C 51.5625 -56.113281 46.894531 -58.046875 41.0625 -58.046875 C 35.15625 -58.046875 30.445312 -56.132812 26.9375 -52.3125 C 23.425781 -48.488281 21.671875 -43.3125 21.671875 -36.78125 C 21.671875 -30.320312 23.425781 -25.164062 26.9375 -21.3125 C 30.445312 -17.457031 35.15625 -15.53125 41.0625 -15.53125 Z M 41.0625 -15.53125 "/></g></g></g><g fill="#1b6f3c" fill-opacity="1"><g transform="translate(299.830615, 160.253481)"><g><path d="M 15.3125 -64.1875 C 12.1875 -64.1875 9.632812 -65.109375 7.65625 -66.953125 C 5.675781 -68.796875 4.6875 -71.070312 4.6875 -73.78125 C 4.6875 -76.550781 5.675781 -78.859375 7.65625 -80.703125 C 9.632812 -82.546875 12.1875 -83.46875 15.3125 -83.46875 C 18.375 -83.46875 20.894531 -82.546875 22.875 -80.703125 C 24.851562 -78.859375 25.84375 -76.550781 25.84375 -73.78125 C 25.84375 -71.070312 24.851562 -68.796875 22.875 -66.953125 C 20.894531 -65.109375 18.375 -64.1875 15.3125 -64.1875 Z M 24.28125 7.5 C 24.28125 14.65625 22.472656 19.8125 18.859375 22.96875 C 15.242188 26.132812 10.207031 27.71875 3.75 27.71875 L -3.234375 27.71875 L -3.234375 12.609375 L 1.046875 12.609375 C 2.984375 12.609375 4.367188 12.222656 5.203125 11.453125 C 6.035156 10.691406 6.453125 9.445312 6.453125 7.71875 L 6.453125 -58.140625 L 24.28125 -58.140625 Z M 24.28125 7.5 "/></g></g></g><g fill="#1b6f3c" fill-opacity="1"><g transform="translate(323.794794, 160.253481)"><g><path d="M 2.921875 -29.171875 C 2.921875 -35.148438 4.046875 -40.394531 6.296875 -44.90625 C 8.554688 -49.425781 11.628906 -52.898438 15.515625 -55.328125 C 19.410156 -57.765625 23.753906 -58.984375 28.546875 -58.984375 C 32.648438 -58.984375 36.242188 -58.148438 39.328125 -56.484375 C 42.421875 -54.816406 44.800781 -52.625 46.46875 -49.90625 L 46.46875 -58.140625 L 64.296875 -58.140625 L 64.296875 0 L 46.46875 0 L 46.46875 -8.234375 C 44.738281 -5.523438 42.328125 -3.335938 39.234375 -1.671875 C 36.140625 -0.00390625 32.546875 0.828125 28.453125 0.828125 C 23.722656 0.828125 19.410156 -0.398438 15.515625 -2.859375 C 11.628906 -5.328125 8.554688 -8.835938 6.296875 -13.390625 C 4.046875 -17.941406 2.921875 -23.203125 2.921875 -29.171875 Z M 46.46875 -29.078125 C 46.46875 -33.515625 45.234375 -37.019531 42.765625 -39.59375 C 40.304688 -42.164062 37.304688 -43.453125 33.765625 -43.453125 C 30.222656 -43.453125 27.21875 -42.179688 24.75 -39.640625 C 22.28125 -37.109375 21.046875 -33.617188 21.046875 -29.171875 C 21.046875 -24.734375 22.28125 -21.207031 24.75 -18.59375 C 27.21875 -15.988281 30.222656 -14.6875 33.765625 -14.6875 C 37.304688 -14.6875 40.304688 -15.972656 42.765625 -18.546875 C 45.234375 -21.117188 46.46875 -24.628906 46.46875 -29.078125 Z M 46.46875 -29.078125 "/></g></g></g><g fill="#c9a24a" fill-opacity="1"><g transform="translate(387.878178, 160.253481)"><g><path d="M 46.578125 -37.203125 C 50.472656 -36.503906 53.773438 -34.453125 56.484375 -31.046875 C 59.191406 -27.648438 60.546875 -23.796875 60.546875 -19.484375 C 60.546875 -15.804688 59.585938 -12.488281 57.671875 -9.53125 C 55.765625 -6.582031 53.003906 -4.253906 49.390625 -2.546875 C 45.773438 -0.847656 41.570312 0 36.78125 0 L 7.8125 0 L 7.8125 -72.421875 L 35.421875 -72.421875 C 40.359375 -72.421875 44.597656 -71.585938 48.140625 -69.921875 C 51.679688 -68.253906 54.351562 -66.015625 56.15625 -63.203125 C 57.96875 -60.390625 58.875 -57.242188 58.875 -53.765625 C 58.875 -49.597656 57.757812 -46.125 55.53125 -43.34375 C 53.3125 -40.570312 50.328125 -38.523438 46.578125 -37.203125 Z M 19.6875 -42 L 34.390625 -42 C 38.273438 -42 41.3125 -42.882812 43.5 -44.65625 C 45.6875 -46.425781 46.78125 -48.976562 46.78125 -52.3125 C 46.78125 -55.570312 45.6875 -58.125 43.5 -59.96875 C 41.3125 -61.8125 38.273438 -62.734375 34.390625 -62.734375 L 19.6875 -62.734375 Z M 35.734375 -9.6875 C 39.765625 -9.6875 42.925781 -10.660156 45.21875 -12.609375 C 47.507812 -14.554688 48.65625 -17.265625 48.65625 -20.734375 C 48.65625 -24.273438 47.441406 -27.085938 45.015625 -29.171875 C 42.585938 -31.253906 39.359375 -32.296875 35.328125 -32.296875 L 19.6875 -32.296875 L 19.6875 -9.6875 Z M 35.734375 -9.6875 "/></g></g></g><g fill="#c9a24a" fill-opacity="1"><g transform="translate(446.85189, 160.253481)"><g><path d="M 32.71875 0.9375 C 27.300781 0.9375 22.40625 -0.289062 18.03125 -2.75 C 13.65625 -5.21875 10.210938 -8.691406 7.703125 -13.171875 C 5.203125 -17.660156 3.953125 -22.859375 3.953125 -28.765625 C 3.953125 -34.597656 5.238281 -39.769531 7.8125 -44.28125 C 10.382812 -48.800781 13.894531 -52.273438 18.34375 -54.703125 C 22.789062 -57.140625 27.753906 -58.359375 33.234375 -58.359375 C 38.722656 -58.359375 43.691406 -57.140625 48.140625 -54.703125 C 52.585938 -52.273438 56.09375 -48.800781 58.65625 -44.28125 C 61.226562 -39.769531 62.515625 -34.597656 62.515625 -28.765625 C 62.515625 -22.921875 61.195312 -17.738281 58.5625 -13.21875 C 55.925781 -8.707031 52.332031 -5.21875 47.78125 -2.75 C 43.226562 -0.289062 38.207031 0.9375 32.71875 0.9375 Z M 32.71875 -9.375 C 35.78125 -9.375 38.644531 -10.101562 41.3125 -11.5625 C 43.988281 -13.019531 46.160156 -15.207031 47.828125 -18.125 C 49.492188 -21.050781 50.328125 -24.597656 50.328125 -28.765625 C 50.328125 -32.929688 49.523438 -36.453125 47.921875 -39.328125 C 46.328125 -42.210938 44.210938 -44.382812 41.578125 -45.84375 C 38.941406 -47.300781 36.09375 -48.03125 33.03125 -48.03125 C 29.976562 -48.03125 27.144531 -47.300781 24.53125 -45.84375 C 21.925781 -44.382812 19.859375 -42.210938 18.328125 -39.328125 C 16.804688 -36.453125 16.046875 -32.929688 16.046875 -28.765625 C 16.046875 -22.578125 17.625 -17.796875 20.78125 -14.421875 C 23.945312 -11.054688 27.925781 -9.375 32.71875 -9.375 Z M 32.71875 -9.375 "/></g></g></g><g fill="#c9a24a" fill-opacity="1"><g transform="translate(506.659163, 160.253481)"><g><path d="M 32.40625 -29.078125 L 50.953125 0 L 37.515625 0 L 25.109375 -19.484375 L 13.4375 0 L 1.046875 0 L 19.59375 -28.234375 L 1.046875 -57.421875 L 14.484375 -57.421875 L 26.890625 -37.9375 L 38.5625 -57.421875 L 50.953125 -57.421875 Z M 32.40625 -29.078125 "/></g></g></g></g></g></svg>